<svg xmlns="http://www.w3.org/2000/svg" xmlns:xlink="http://www.w3.org/1999/xlink" viewBox="0 0 195 257"><defs><style>.cls-1{fill:none;}.cls-2{clip-path:url(#clip-path);}.cls-3{fill:#00ffb8;}</style><clipPath id="clip-path" transform="translate(5 5)"><path class="cls-1" d="M0,164.39H23V56.63a12.92,12.92,0,0,0-2.79-8.14q-2.79-3.59-8.6-3.59T2.91,48.49A12.58,12.58,0,0,0,0,56.63Zm106.38-25.74h22.88V26.82a13.08,13.08,0,0,0-2.72-8.2q-2.73-3.54-8.54-3.53t-8.72,3.53a12.5,12.5,0,0,0-2.9,8.2Zm-35.46-4h23V11.49a12,12,0,0,0-3-8Q88,0,82.3,0T73.7,3.47a12.5,12.5,0,0,0-2.78,8Zm-35.46,0H58.58V20.47a12.43,12.43,0,0,0-3-8.14q-3-3.59-8.66-3.59T38.3,12.33a12.81,12.81,0,0,0-2.84,8.14Zm138.63-34.12q-7.47,0-11.27,3.77t-8.18,13.35q-2.37,5.16-5,11.86t-5.34,13A81.67,81.67,0,0,1,139.05,153c-1.7,2.76-3.34,4.13-4.93,4.13q-4.86,0-4.86-18.43,0-5.16-5.22-10.72t-16.6-9.4q-11.39-3.82-29.88-3.83a112.66,112.66,0,0,0-29.71,3.83,89,89,0,0,0-24.78,10.72,58.1,58.1,0,0,0-16.9,15.86A33.43,33.43,0,0,0,0,164.39Q0,193,9.67,211.26t26.62,27Q53.24,247,75,247q21.1,0,36.94-6.7a81.6,81.6,0,0,0,28.16-20,96.18,96.18,0,0,0,14.59-20.17,159.83,159.83,0,0,0,9.84-21.79q3.92-10.84,6.35-19.88T175,143.91q1.77-5.62,4.09-12t4.09-12.15A33.79,33.79,0,0,0,185,110c0-2.47-1.28-4.67-3.85-6.58S176.22,100.57,174.09,100.57Z"/></clipPath></defs><title>Ресурс 1</title><g id="Слой_2" data-name="Слой 2"><g id="Слой_1-2" data-name="Слой 1"><g class="cls-2"><rect class="cls-3" width="195" height="257"/></g></g></g></svg>