<svg xmlns="http://www.w3.org/2000/svg" width="22" height="50" viewBox="0 0 11 25"><g><g><path fill="#c9ff26" d="M3.478 25c-1.265 0-2.191-.803-1.307-4.342l1.452-6.273c.252-1.003.294-1.406 0-1.406-.38 0-2.02.693-2.992 1.377L0 13.27C3.075 10.578 6.613 9 8.132 9c1.263 0 1.474 1.568.843 3.98L7.31 19.572c-.294 1.164-.168 1.566.127 1.566.38 0 1.623-.483 2.845-1.487L11 20.655C8.008 23.793 4.74 25 3.478 25zm4.93-25C10.137 0 11 1.02 11 2.19 11 3.65 9.5 5 7.546 5c-1.636 0-2.59-.84-2.544-2.226C5.002 1.607 6.137 0 8.409 0z"/></g></g></svg>