<?xml version="1.0" encoding="utf-8"?>
<svg width="17px" height="20px" viewBox="0 0 17 20" version="1.1" xmlns:xlink="http://www.w3.org/1999/xlink" xmlns="http://www.w3.org/2000/svg">
  <desc>Created with Lunacy</desc>
  <defs>
    <path d="M7.59005 0.352359C7.39623 0.586895 7.29932 0.855333 7.29932 1.15767L7.29932 1.15767L7.29932 6.72817C6.86547 6.75096 6.44177 6.79486 6.0282 6.86045L6.0282 6.86045L6.0282 2.0658C6.0282 1.75513 5.9251 1.48058 5.72001 1.24159L5.72001 1.24159C5.51379 1.00317 5.21742 0.883121 4.82978 0.883121L4.82978 0.883121C4.44213 0.883121 4.15027 1.00317 3.95194 1.24159L3.95194 1.24159C3.75474 1.48058 3.65614 1.75513 3.65614 2.0658L3.65614 2.0658L3.65614 7.51514C3.19863 7.70133 2.77267 7.91697 2.37883 8.16095L2.37883 8.16095C2.37657 8.16262 2.37432 8.16373 2.37263 8.16484L2.37263 8.16484L2.37263 5.69499C2.37263 5.38487 2.27797 5.11032 2.08809 4.87134L2.08809 4.87134C1.89878 4.63291 1.60241 4.51342 1.19843 4.51342L1.19843 4.51342C0.795009 4.51342 0.494697 4.63291 0.296367 4.87134L0.296367 4.87134C0.0991648 5.11032 0 5.38487 0 5.69499L0 5.69499L0 11.7018C0 13.612 0.332991 15.1803 0.998973 16.4058L0.998973 16.4058C1.66439 17.6319 2.57828 18.5372 3.74065 19.1224L3.74065 19.1224C4.90246 19.7077 6.23048 20 7.72302 20L7.72302 20C9.15922 20 10.4224 19.7732 11.5116 19.3197L11.5116 19.3197C12.6013 18.8657 13.5698 18.1971 14.4166 17.3134L14.4166 17.3134C14.9981 16.6926 15.4945 16.0162 15.9064 15.2832L15.9064 15.2832C16.3177 14.5512 17 8.08426 17 7.82137L17 7.82137C17 7.57517 16.8687 7.35564 16.6067 7.16501L16.6067 7.16501C16.3442 6.97382 16.1008 6.87823 15.8743 6.87823L15.8743 6.87823C15.3655 6.87823 15.0223 7.25338 14.8995 7.69521L14.8995 7.69521C14.8037 8.04257 14.4859 10.2645 14.3079 10.543L14.3079 10.543C14.131 10.822 13.9614 10.9615 13.7997 10.9615L13.7997 10.9615C13.4689 10.9615 13.3033 10.3446 13.3033 9.11077L13.3033 9.11077L13.3033 2.69883C13.3033 2.38815 13.2092 2.11304 13.0188 1.87462L13.0188 1.87462C12.8294 1.63564 12.537 1.51615 12.1409 1.51615L12.1409 1.51615C11.7381 1.51615 11.4378 1.63564 11.2394 1.87462L11.2394 1.87462C11.0422 2.11304 10.9431 2.38815 10.9431 2.69883L10.9431 2.69883L10.9431 7.0583C10.5706 6.94548 10.1469 6.86045 9.67195 6.80265L9.67195 6.80265L9.67195 1.15767C9.67195 0.855333 9.57109 0.586895 9.36938 0.352359L9.36938 0.352359C9.16823 0.117824 8.86961 0 8.47352 0L8.47352 0C8.07799 0 7.78387 0.117824 7.59005 0.352359L7.59005 0.352359Z" id="path_1" />
    <clipPath id="mask_1">
      <use xlink:href="#path_1" />
    </clipPath>
  </defs>
  <g id="Group-3">
    <path d="M7.59005 0.352359C7.39623 0.586895 7.29932 0.855333 7.29932 1.15767L7.29932 1.15767L7.29932 6.72817C6.86547 6.75096 6.44177 6.79486 6.0282 6.86045L6.0282 6.86045L6.0282 2.0658C6.0282 1.75513 5.9251 1.48058 5.72001 1.24159L5.72001 1.24159C5.51379 1.00317 5.21742 0.883121 4.82978 0.883121L4.82978 0.883121C4.44213 0.883121 4.15027 1.00317 3.95194 1.24159L3.95194 1.24159C3.75474 1.48058 3.65614 1.75513 3.65614 2.0658L3.65614 2.0658L3.65614 7.51514C3.19863 7.70133 2.77267 7.91697 2.37883 8.16095L2.37883 8.16095C2.37657 8.16262 2.37432 8.16373 2.37263 8.16484L2.37263 8.16484L2.37263 5.69499C2.37263 5.38487 2.27797 5.11032 2.08809 4.87134L2.08809 4.87134C1.89878 4.63291 1.60241 4.51342 1.19843 4.51342L1.19843 4.51342C0.795009 4.51342 0.494697 4.63291 0.296367 4.87134L0.296367 4.87134C0.0991648 5.11032 0 5.38487 0 5.69499L0 5.69499L0 11.7018C0 13.612 0.332991 15.1803 0.998973 16.4058L0.998973 16.4058C1.66439 17.6319 2.57828 18.5372 3.74065 19.1224L3.74065 19.1224C4.90246 19.7077 6.23048 20 7.72302 20L7.72302 20C9.15922 20 10.4224 19.7732 11.5116 19.3197L11.5116 19.3197C12.6013 18.8657 13.5698 18.1971 14.4166 17.3134L14.4166 17.3134C14.9981 16.6926 15.4945 16.0162 15.9064 15.2832L15.9064 15.2832C16.3177 14.5512 17 8.08426 17 7.82137L17 7.82137C17 7.57517 16.8687 7.35564 16.6067 7.16501L16.6067 7.16501C16.3442 6.97382 16.1008 6.87823 15.8743 6.87823L15.8743 6.87823C15.3655 6.87823 15.0223 7.25338 14.8995 7.69521L14.8995 7.69521C14.8037 8.04257 14.4859 10.2645 14.3079 10.543L14.3079 10.543C14.131 10.822 13.9614 10.9615 13.7997 10.9615L13.7997 10.9615C13.4689 10.9615 13.3033 10.3446 13.3033 9.11077L13.3033 9.11077L13.3033 2.69883C13.3033 2.38815 13.2092 2.11304 13.0188 1.87462L13.0188 1.87462C12.8294 1.63564 12.537 1.51615 12.1409 1.51615L12.1409 1.51615C11.7381 1.51615 11.4378 1.63564 11.2394 1.87462L11.2394 1.87462C11.0422 2.11304 10.9431 2.38815 10.9431 2.69883L10.9431 2.69883L10.9431 7.0583C10.5706 6.94548 10.1469 6.86045 9.67195 6.80265L9.67195 6.80265L9.67195 1.15767C9.67195 0.855333 9.57109 0.586895 9.36938 0.352359L9.36938 0.352359C9.16823 0.117824 8.86961 0 8.47352 0L8.47352 0C8.07799 0 7.78387 0.117824 7.59005 0.352359L7.59005 0.352359Z" id="Clip-2" fill="none" stroke="none" />
    <g clip-path="url(#mask_1)">
      <path d="M0 4.76339L25 0L25 30L0 30L0 4.76339Z" transform="translate(-4 -5)" id="Fill-1" fill="#FF006A" stroke="none" />
    </g>
  </g>
</svg>