<svg xmlns="http://www.w3.org/2000/svg" width="26" height="12" viewBox="0 0 13 6"><g><g><path fill="#dde980" d="M12 4c.142-.007.29-.053.446-.137.155-.084.286-.2.393-.348A.858.858 0 0 0 13 2.998a.85.85 0 0 0-.16-.515 1.197 1.197 0 0 0-.394-.348A.997.997 0 0 0 12 2zM8.533 4c.088 0 .161-.005.218-.016a.357.357 0 0 0 .143-.056.239.239 0 0 0 .082-.104A.416.416 0 0 0 9 3.672V2.33a.424.424 0 0 0-.024-.155.224.224 0 0 0-.082-.101.337.337 0 0 0-.143-.06A1.245 1.245 0 0 0 8.533 2h-6.07c-.088 0-.16.005-.217.016a.337.337 0 0 0-.144.059.213.213 0 0 0-.08.101.454.454 0 0 0-.022.155v1.34c0 .062.007.113.022.153.015.04.042.075.08.104.041.027.09.046.145.056.056.01.128.016.217.016zM2.077 5c-.199 0-.369-.015-.51-.045a.737.737 0 0 1-.344-.162.601.601 0 0 1-.176-.308A1.964 1.964 0 0 1 1 4.02V1.991c0-.186.016-.343.047-.471a.602.602 0 0 1 .176-.31.725.725 0 0 1 .342-.163C1.707 1.016 1.88 1 2.081 1h6.842c.199 0 .369.016.51.048a.785.785 0 0 1 .344.163c.086.078.144.18.176.307.031.127.047.282.047.466V4.02c0 .184-.016.34-.047.465a.621.621 0 0 1-.176.309.713.713 0 0 1-.342.162c-.142.03-.313.045-.512.045zm6.736 1c.387 0 .717-.032.99-.096.272-.063.507-.189.703-.375.196-.182.327-.4.394-.655s.1-.566.1-.932V2.054c0-.366-.033-.676-.1-.931a1.339 1.339 0 0 0-.394-.655 1.51 1.51 0 0 0-.703-.372A4.413 4.413 0 0 0 8.813 0h-6.63C1.8 0 1.47.032 1.197.096a1.51 1.51 0 0 0-.703.372 1.36 1.36 0 0 0-.394.657c-.067.253-.1.562-.1.926v1.891c0 .366.033.677.1.932s.198.473.394.655c.199.186.434.312.705.375.272.064.601.096.988.096z"/></g></g></svg>