<svg xmlns="http://www.w3.org/2000/svg" width="132" height="180" viewBox="0 0 66 90"><g><g><g><path fill="#f13d3d" d="M45 42c3.3 0 6 2.7 6 6v21c0 3.3-2.7 6-6 6H21c-3.3 0-6-2.7-6-6V48c0-3.3 2.7-6 6-6zm12 27V48c0-6.6-5.4-12-12-12H21c-6.6 0-12 5.4-12 12v21c0 6.6 5.4 12 12 12h24c6.6 0 12-5.4 12-12z"/></g><g><path fill="#f13d3d" d="M21 27c0-6.6 5.4-12 12-12s12 5.4 12 12v9H21zm30 12V27c0-9.9-7.8-18-18-18-9.9 0-18 8.1-18 18v12c0 1.8 1.2 3 3 3h30c1.8 0 3-1.2 3-3z"/></g><g><path fill="#f13d3d" d="M33 60a6 6 0 1 0 0-12 6 6 0 0 0 0 12z"/></g><g><path fill="#f13d3d" d="M33 69c-1.8 0-3-1.2-3-3v-9c0-1.8 1.2-3 3-3s3 1.2 3 3v9c0 1.8-1.2 3-3 3z"/></g></g></g></svg>