<svg xmlns="http://www.w3.org/2000/svg" width="74" height="124" viewBox="0 0 37 62">
    <defs>
        <mask id="va18b" width="2" height="2" x="-1" y="-1">
            <path fill="#fff" d="M13 8h11v48H13z"/>
            <path d="M20.927 13.822c0 4.155-1.661 8.213-4.83 11.197C14.18 26.825 13 29.286 13 31.999c0 2.715 1.18 5.176 3.098 6.982a15.325 15.325 0 0 1 4.829 11.197V56A94.956 94.956 0 0 0 24 32a94.954 94.954 0 0 0-3.073-24z"/>
        </mask>
        <filter id="va18a" width="63" height="101" x="-13" y="-19" filterUnits="userSpaceOnUse">
            <feOffset dy="-1" in="SourceGraphic" result="FeOffset1032Out"/>
            <feGaussianBlur in="FeOffset1032Out" result="FeGaussianBlur1033Out" stdDeviation="6.4 6.4"/>
        </filter>
    </defs>
    <g>
        <g>
            <g filter="url(#va18a)">
                <path fill="none"
                      d="M20.927 13.822c0 4.155-1.661 8.213-4.83 11.197C14.18 26.825 13 29.286 13 31.999c0 2.715 1.18 5.176 3.098 6.982a15.325 15.325 0 0 1 4.829 11.197V56A94.956 94.956 0 0 0 24 32a94.954 94.954 0 0 0-3.073-24z"
                      mask="url(&quot;#va18b&quot;)"/>
                <path fill="#ceff00" fill-opacity=".36"
                      d="M20.927 13.822c0 4.155-1.661 8.213-4.83 11.197C14.18 26.825 13 29.286 13 31.999c0 2.715 1.18 5.176 3.098 6.982a15.325 15.325 0 0 1 4.829 11.197V56A94.956 94.956 0 0 0 24 32a94.954 94.954 0 0 0-3.073-24z"/>
            </g>
            <path fill="#ceff00"
                  d="M20.927 13.822c0 4.155-1.661 8.213-4.83 11.197C14.18 26.825 13 29.286 13 31.999c0 2.715 1.18 5.176 3.098 6.982a15.325 15.325 0 0 1 4.829 11.197V56A94.956 94.956 0 0 0 24 32a94.954 94.954 0 0 0-3.073-24z"/>
        </g>
    </g>
</svg>